<svg width="29" height="19" viewBox="0 0 29 19" fill="none" xmlns="http://www.w3.org/2000/svg">
<path fill-rule="evenodd" clip-rule="evenodd" d="M8.354 1.34033C3.93572 1.34033 0.354004 4.92205 0.354004 9.34033C0.354004 13.7586 3.93572 17.3403 8.354 17.3403C12.7723 17.3403 16.354 13.7586 16.354 9.34033C16.354 4.92205 12.7723 1.34033 8.354 1.34033Z" fill="#E92B2B"/>
<path fill-rule="evenodd" clip-rule="evenodd" d="M15.2838 13.3403H1.42433C1.85884 14.091 2.41202 14.7664 3.0624 15.3403H13.6457C14.2961 14.7664 14.8493 14.091 15.2838 13.3403ZM16.354 9.34033H0.354004C0.354004 10.0309 0.441504 10.7011 0.60604 11.3403H16.102C16.2665 10.7011 16.354 10.0309 16.354 9.34033ZM15.2839 5.34033H1.42447C1.06198 5.96666 0.786705 6.63954 0.606254 7.34033H16.1022C15.9217 6.63953 15.6464 5.96665 15.2839 5.34033ZM13.6449 3.34033H3.06158C4.47186 2.09562 6.32436 1.34033 8.35325 1.34033C10.3821 1.34033 12.2346 2.09562 13.6449 3.34033Z" fill="#FBFBFB"/>
<path fill-rule="evenodd" clip-rule="evenodd" d="M7.55422 1.38037V9.3409H0.354004C0.354004 5.19255 3.51147 1.78162 7.55422 1.38037Z" fill="#2A2FAF"/>
<path fill-rule="evenodd" clip-rule="evenodd" d="M1.57412 5.09444H1.91562L1.44541 5.43609L1.62502 5.98887L1.2292 5.7013C1.33528 5.49409 1.45036 5.29161 1.57412 5.09444ZM0.543945 7.60352C0.552019 7.56706 0.560353 7.53067 0.568945 7.49434H0.974874L1.15452 6.94155L1.33409 7.49434H1.91534L1.44509 7.83598L1.62473 8.38877L1.15448 8.04712L0.684267 8.38877L0.863874 7.83598L0.543945 7.60352ZM3.20402 3.21976C3.42682 3.0321 3.65968 2.85669 3.90155 2.69434H4.3152L3.84495 3.03598L4.02455 3.58876L3.55434 3.24712L3.08412 3.58876L3.20402 3.21976Z" fill="#FBFBFB"/>
<path d="M3.5548 4.53979L3.73441 5.09258H4.31566L3.84541 5.43422L4.02505 5.98701L3.5548 5.64536L3.08459 5.98701L3.2642 5.43422L2.79395 5.09258H3.3752L3.5548 4.53979ZM3.5548 6.93962L3.73441 7.4924H4.31566L3.84541 7.83404L4.02505 8.38683L3.5548 8.04519L3.08459 8.38683L3.2642 7.83404L2.79395 7.4924H3.3752L3.5548 6.93962ZM5.95437 2.13965L6.13398 2.69243H6.7152L6.24498 3.03408L6.42459 3.58686L5.95437 3.24522L5.48412 3.58686L5.66373 3.03408L5.19352 2.69247H5.77477L5.95437 2.13965ZM5.95437 4.53979L6.13398 5.09258H6.7152L6.24498 5.43422L6.42459 5.98701L5.95437 5.64536L5.48412 5.98701L5.66373 5.43422L5.19352 5.09258H5.77477L5.95437 4.53979ZM5.95437 6.93962L6.13398 7.4924H6.7152L6.24498 7.83404L6.42459 8.38683L5.95437 8.04519L5.48412 8.38683L5.66373 7.83404L5.19352 7.4924H5.77477L5.95437 6.93962Z" fill="#FBFBFB"/>
<path d="M16.354 18.3403C21.3246 18.3403 25.354 14.3109 25.354 9.34033C25.354 4.36977 21.3246 0.340332 16.354 0.340332C11.3834 0.340332 7.354 4.36977 7.354 9.34033C7.354 14.3109 11.3834 18.3403 16.354 18.3403Z" fill="#E3F0F5"/>
<path d="M9.21449 3.86048C8.50753 4.78027 7.97446 5.84041 7.66406 6.99209H12.3461L9.21449 3.86048ZM25.044 6.99209C24.7336 5.84044 24.2005 4.7803 23.4936 3.86051L20.362 6.99209H25.044ZM7.66406 11.6877C7.97449 12.8394 8.50757 13.8995 9.21449 14.8193L12.346 11.6877H7.66406ZM21.8334 2.20036C20.9136 1.49341 19.8535 0.960332 18.7018 0.649902V5.33191L21.8334 2.20036ZM10.8746 16.4794C11.7944 17.1863 12.8546 17.7194 14.0062 18.0298V13.3478L10.8746 16.4794ZM14.0062 0.649902C12.8545 0.960332 11.7944 1.49341 10.8746 2.20033L14.0062 5.33187V0.649902ZM18.7019 18.0298C19.8535 17.7194 20.9136 17.1863 21.8334 16.4794L18.7019 13.3478V18.0298ZM20.362 11.6877L23.4936 14.8193C24.2005 13.8996 24.7336 12.8394 25.044 11.6877H20.362Z" fill="#E3F0F5"/>
<path d="M28.2778 8.16643H20.5279V0.416516C20.1387 0.365799 19.7466 0.340352 19.354 0.340332C18.9561 0.340332 18.5644 0.366488 18.1801 0.416516V8.16639H10.4302C10.3795 8.55565 10.354 8.94779 10.354 9.34033C10.354 9.73827 10.3802 10.13 10.4302 10.5142H18.1801V18.2641C18.9594 18.3657 19.7486 18.3657 20.5279 18.2641V10.5143H28.2778C28.3285 10.125 28.354 9.73288 28.354 9.34033C28.354 8.94247 28.3278 8.55069 28.2778 8.16643Z" fill="#E3F0F5"/>
<path d="M21.7018 11.6886L25.7179 15.7047C25.9025 15.5198 26.079 15.3271 26.2469 15.1269L22.8085 11.6885H21.7018V11.6886ZM17.0061 11.6886H17.006L12.9899 15.7046C13.1748 15.8893 13.3676 16.0658 13.5677 16.2337L17.0061 12.7953V11.6886ZM17.0061 6.99293V6.99286L12.99 2.97672C12.8053 3.16156 12.6288 3.35434 12.4609 3.55451L15.8993 6.99289H17.0061V6.99293ZM21.7018 6.99293L25.7179 2.97675C25.5331 2.79213 25.3403 2.61563 25.1401 2.44775L21.7018 5.88614V6.99293Z" fill="#E3F0F5"/>
<path d="M16.354 17.3403C20.7723 17.3403 24.354 13.7586 24.354 9.34033C24.354 4.92205 20.7723 1.34033 16.354 1.34033C11.9357 1.34033 8.354 4.92205 8.354 9.34033C8.354 13.7586 11.9357 17.3403 16.354 17.3403Z" fill="#F0F0F0"/>
<path d="M10.0078 4.46957C9.37939 5.28716 8.90554 6.2295 8.62964 7.25322H12.7915L10.0078 4.46957ZM24.0785 7.25322C23.8025 6.22953 23.3287 5.28719 22.7003 4.4696L19.9167 7.25322H24.0785ZM8.62964 11.4271C8.90558 12.4508 9.37942 13.3932 10.0078 14.2107L12.7914 11.4271H8.62964ZM21.2246 2.99391C20.407 2.3655 19.4647 1.89166 18.441 1.61572V5.7775L21.2246 2.99391ZM11.4835 15.6863C12.3011 16.3148 13.2434 16.7886 14.2671 17.0645V12.9028L11.4835 15.6863ZM14.2671 1.61572C13.2434 1.89166 12.301 2.3655 11.4835 2.99388L14.2671 5.77747V1.61572ZM18.441 17.0645C19.4647 16.7886 20.407 16.3148 21.2246 15.6864L18.441 12.9028V17.0645ZM19.9167 11.4271L22.7003 14.2108C23.3287 13.3932 23.8025 12.4508 24.0785 11.4271H19.9167Z" fill="#0052B4"/>
<path d="M24.2863 8.29686H17.3975V1.40805C17.0515 1.36297 16.7029 1.34035 16.354 1.34033C16.0003 1.34033 15.6521 1.36358 15.3105 1.40805V8.29683H8.42172C8.37664 8.64284 8.35402 8.9914 8.354 9.34033C8.354 9.69405 8.37725 10.0422 8.42172 10.3838H15.3105V17.2726C16.0032 17.3629 16.7047 17.3629 17.3975 17.2726V10.3838H24.2863C24.3314 10.0378 24.354 9.68926 24.354 9.34033C24.354 8.98668 24.3308 8.63843 24.2863 8.29686Z" fill="#D80027"/>
<path d="M18.4411 11.4274L22.011 14.9973C22.1751 14.833 22.332 14.6616 22.4812 14.4837L19.4249 11.4274H18.4411V11.4274ZM14.2672 11.4274H14.2671L10.6973 14.9973C10.8616 15.1614 11.0329 15.3183 11.2109 15.4675L14.2672 12.4112V11.4274ZM14.2672 7.25354V7.25347L10.6973 3.68357C10.5332 3.84788 10.3763 4.01923 10.2271 4.19716L13.2834 7.2535H14.2672V7.25354ZM18.4411 7.25354L22.011 3.6836C21.8467 3.51949 21.6754 3.3626 21.4974 3.21338L18.4411 6.26972V7.25354Z" fill="#D80027"/>
</svg>
