<svg width="17" height="17" viewBox="0 0 17 17" fill="none" xmlns="http://www.w3.org/2000/svg">
<path fill-rule="evenodd" clip-rule="evenodd" d="M11.6606 15.6269V1.05371C14.429 2.31199 16.354 5.10127 16.354 8.34031C16.354 11.5793 14.429 14.3686 11.6606 15.6269Z" fill="#ED2939"/>
<path fill-rule="evenodd" clip-rule="evenodd" d="M5.04735 1.05371V15.6269C2.279 14.3686 0.354004 11.5793 0.354004 8.34031C0.354004 5.10127 2.279 2.31199 5.04735 1.05371Z" fill="#002395"/>
<path fill-rule="evenodd" clip-rule="evenodd" d="M11.6607 1.05374V15.6269C10.6217 16.0971 9.49443 16.3403 8.35402 16.3403C7.21362 16.3403 6.08632 16.0971 5.04736 15.6269V1.05374C6.08632 0.583544 7.21362 0.340332 8.35402 0.340332C9.49443 0.340332 10.6217 0.583544 11.6607 1.05374Z" fill="#F5F5F5"/>
</svg>
