<svg width="10" height="16" viewBox="0 0 10 16" fill="none" xmlns="http://www.w3.org/2000/svg">
<path d="M5.10211 15.2582C4.92654 15.2582 4.751 15.1924 4.61715 15.061L0.405059 10.9229C0.137116 10.6597 0.137116 10.2329 0.405059 9.9698C0.672895 9.70668 1.10723 9.70668 1.3752 9.9698L5.10211 13.6314L8.82904 9.96993C9.09698 9.70681 9.53128 9.70681 9.79909 9.96993C10.0672 10.2331 10.0672 10.6598 9.79909 10.9231L5.58707 15.0611C5.45315 15.1925 5.27761 15.2582 5.10211 15.2582Z" fill="#191536"/>
<path d="M5.10199 0.00102901C5.27756 0.00102901 5.4531 0.0668845 5.58695 0.198318L9.79904 4.33634C10.067 4.59957 10.067 5.02635 9.79904 5.28947C9.53121 5.5526 9.09687 5.5526 8.8289 5.28947L5.10199 1.62792L1.37506 5.28935C1.10712 5.55247 0.672822 5.55247 0.405008 5.28935C0.136934 5.02622 0.136934 4.59944 0.405008 4.33621L4.61703 0.19819C4.75095 0.0667353 4.92649 0.00102901 5.10199 0.00102901Z" fill="#191536"/>
</svg>
