<svg width="25" height="25" viewBox="0 0 25 25" fill="none" xmlns="http://www.w3.org/2000/svg">
<path d="M4.39019 14.2928C5.23712 10.2258 8.77757 7.33607 12.7601 7.33607C16.7414 7.33607 20.2819 10.2258 21.13 14.2928C21.1636 14.4542 21.26 14.5956 21.3978 14.686C21.5357 14.7763 21.7038 14.8082 21.8652 14.7746C22.0266 14.741 22.168 14.6447 22.2584 14.5068C22.3487 14.369 22.3806 14.2008 22.347 14.0395C21.3821 9.41364 17.3462 6.09424 12.7601 6.09424C8.17404 6.09424 4.1381 9.41364 3.1732 14.0395C3.13961 14.2008 3.1715 14.369 3.26186 14.5068C3.35222 14.6447 3.49365 14.741 3.65503 14.7746C3.81641 14.8082 3.98453 14.7763 4.1224 14.686C4.26027 14.5956 4.3566 14.4542 4.39019 14.2928ZM12.7477 9.81972C13.9004 9.81972 15.006 10.2776 15.8211 11.0928C16.6362 11.9079 17.0941 13.0134 17.0941 14.1661C17.0941 15.3189 16.6362 16.4244 15.8211 17.2395C15.006 18.0546 13.9004 18.5125 12.7477 18.5125C11.595 18.5125 10.4894 18.0546 9.67433 17.2395C8.85922 16.4244 8.4013 15.3189 8.4013 14.1661C8.4013 13.0134 8.85922 11.9079 9.67433 11.0928C10.4894 10.2776 11.595 9.81972 12.7477 9.81972Z" fill="#989898"/>
</svg>
