<svg width="21" height="21" viewBox="0 0 21 21" fill="none" xmlns="http://www.w3.org/2000/svg">
<g clip-path="url(#clip0_1747_41)">
<path d="M15.4808 9.6208C15.8745 10.4083 16.078 11.2549 16.078 12.1408C16.078 15.2186 13.5777 17.7189 10.4998 17.7189C9.25297 17.7189 8.09797 17.3121 7.17266 16.6099L14.4439 9.33861C14.5358 9.33205 14.6277 9.31236 14.7195 9.28611C15.0214 9.2008 15.3364 9.34518 15.4808 9.6208ZM16.4783 7.30424C17.8302 8.65611 18.7752 10.323 19.0377 11.9177C19.0902 12.2392 19.3723 12.4689 19.6873 12.4689C19.7202 12.4689 19.7595 12.4624 19.7923 12.4558C20.1533 12.3967 20.3961 12.0621 20.337 11.7011C20.0089 9.71924 18.9195 7.84236 17.4233 6.35924L16.4783 7.30424ZM20.1533 0.846738C19.8973 0.590801 19.4773 0.590801 19.2214 0.846738L15.3364 4.73174C14.9427 4.48893 14.5358 4.27893 14.1223 4.09518C12.9608 3.57674 11.727 3.28143 10.4998 3.28143C6.01109 3.28143 1.41078 7.21893 0.662656 11.7011C0.603593 12.0621 0.846406 12.3967 1.20734 12.4558C1.29231 12.4708 1.37942 12.4687 1.46359 12.4497C1.54775 12.4307 1.62728 12.3951 1.69753 12.345C1.76779 12.2949 1.82736 12.2313 1.87277 12.1579C1.91819 12.0846 1.94853 12.0029 1.96203 11.9177C2.53953 8.45924 6.31297 4.59393 10.4998 4.59393C11.4055 4.59393 12.2914 4.77111 13.1248 5.09268C13.558 5.25674 13.978 5.45361 14.3848 5.6833L11.7795 8.28861C11.5039 7.94736 11.307 7.54705 11.2152 7.09424C11.2086 7.07455 11.202 7.0483 11.1889 7.02861C11.1607 6.92886 11.1081 6.83768 11.0359 6.76324C10.9638 6.68879 10.8743 6.63341 10.7755 6.60205C10.6573 6.56268 10.5458 6.56268 10.4998 6.56268C7.42203 6.56268 4.92172 9.06299 4.92172 12.1408C4.92172 12.5017 4.95453 12.8561 5.02016 13.1974C5.11859 13.683 5.26953 14.1489 5.48609 14.5821L0.846406 19.2217C0.590468 19.4777 0.590468 19.8977 0.846406 20.1536C0.977656 20.2783 1.14172 20.3439 1.31234 20.3439C1.48297 20.3439 1.64703 20.2783 1.77828 20.1536L6.21453 15.7174L12.8164 9.11549H12.823L15.5005 6.43143L16.4389 5.49299L20.1533 1.77861C20.4092 1.52268 20.4092 1.10268 20.1533 0.846738Z" fill="#989898"/>
</g>
<defs>
<clipPath id="clip0_1747_41">
<rect width="21" height="21" fill="white"/>
</clipPath>
</defs>
</svg>
